<?xml version="1.0" encoding="UTF-8"?>
<svg xmlns="http://www.w3.org/2000/svg" xmlns:xlink="http://www.w3.org/1999/xlink" width="20px" height="20px" viewBox="0 0 20 20" version="1.1">
<g id="surface1">
<path style=" stroke:none;fill-rule:nonzero;fill:white;fill-opacity:1;" d="M 15.832031 7.5 L 16.875 5.207031 L 19.167969 4.167969 L 16.875 3.125 L 15.832031 0.832031 L 14.792969 3.125 L 12.5 4.167969 L 14.792969 5.207031 Z M 15.832031 7.5 "/>
<path style=" stroke:none;fill-rule:nonzero;fill:white;fill-opacity:1;" d="M 15.832031 12.5 L 14.792969 14.792969 L 12.5 15.832031 L 14.792969 16.875 L 15.832031 19.167969 L 16.875 16.875 L 19.167969 15.832031 L 16.875 14.792969 Z M 15.832031 12.5 "/>
<path style=" stroke:none;fill-rule:nonzero;fill:white;fill-opacity:1;" d="M 9.582031 7.917969 L 7.5 3.332031 L 5.417969 7.917969 L 0.832031 10 L 5.417969 12.082031 L 7.5 16.667969 L 9.582031 12.082031 L 14.167969 10 Z M 8.324219 10.824219 L 7.5 12.640625 L 6.675781 10.824219 L 4.859375 10 L 6.675781 9.175781 L 7.5 7.359375 L 8.324219 9.175781 L 10.140625 10 Z M 8.324219 10.824219 "/>
</g>
</svg>
