<?xml version="1.0" encoding="UTF-8"?>
<svg xmlns="http://www.w3.org/2000/svg" xmlns:xlink="http://www.w3.org/1999/xlink" width="20px" height="20px" viewBox="0 0 20 20" version="1.1">
<g id="surface1">
<path style=" stroke:none;fill-rule:nonzero;fill:white;fill-opacity:1;" d="M 13.332031 0.832031 L 3.332031 0.832031 C 2.417969 0.832031 1.667969 1.582031 1.667969 2.5 L 1.667969 14.167969 L 3.332031 14.167969 L 3.332031 2.5 L 13.332031 2.5 Z M 15.832031 4.167969 L 6.667969 4.167969 C 5.75 4.167969 5 4.917969 5 5.832031 L 5 17.5 C 5 18.417969 5.75 19.167969 6.667969 19.167969 L 15.832031 19.167969 C 16.75 19.167969 17.5 18.417969 17.5 17.5 L 17.5 5.832031 C 17.5 4.917969 16.75 4.167969 15.832031 4.167969 Z M 15.832031 17.5 L 6.667969 17.5 L 6.667969 5.832031 L 15.832031 5.832031 Z M 15.832031 17.5 "/>
</g>
</svg>
