<?xml version="1.0" encoding="UTF-8"?>
<svg version="1.0" xmlns="http://www.w3.org/2000/svg"
 width="50.000000pt" height="50.000000pt" viewBox="0 0 50.000000 50.000000"
 preserveAspectRatio="xMidYMid meet">

<g transform="translate(0.000000,50.000000) scale(0.100000,-0.100000)"
fill="white" stroke="none">
<path d="M20 472 c0 -14 449 -456 456 -449 4 4 -1 16 -11 27 -16 18 -16 20 -2
20 15 0 17 19 17 180 l0 180 -198 0 -199 0 -23 25 c-23 25 -40 32 -40 17z
m440 -199 l0 -137 -60 59 c-59 58 -60 59 -80 40 -21 -19 -22 -18 -118 78 l-97
97 178 0 177 0 0 -137z m-58 -110 c62 -61 68 -73 40 -73 -23 0 -126 105 -118
119 11 18 17 14 78 -46z"/>
<path d="M324 336 c-10 -26 4 -48 28 -44 33 4 33 52 0 56 -13 2 -25 -3 -28
-12z"/>
<path d="M20 252 l0 -182 181 0 c117 0 178 3 174 10 -4 6 -72 10 -171 10
l-164 0 0 39 c0 36 6 45 65 97 35 31 62 61 59 66 -3 4 -31 -14 -62 -42 l-57
-51 -3 108 c-1 59 -7 112 -12 117 -7 7 -10 -55 -10 -172z"/>
<path d="M255 169 c-4 -6 -5 -13 -2 -16 7 -7 27 6 27 18 0 12 -17 12 -25 -2z"/>
</g>
</svg>
